<?xml version="1.0" encoding="UTF-8" standalone="no"?>
<!-- Created with Inkscape (http://www.inkscape.org/) -->

<svg
   xmlns:dc="http://purl.org/dc/elements/1.1/"
   xmlns:cc="http://creativecommons.org/ns#"
   xmlns:rdf="http://www.w3.org/1999/02/22-rdf-syntax-ns#"
   xmlns:svg="http://www.w3.org/2000/svg"
   xmlns="http://www.w3.org/2000/svg"
   xmlns:sodipodi="http://sodipodi.sourceforge.net/DTD/sodipodi-0.dtd"
   xmlns:inkscape="http://www.inkscape.org/namespaces/inkscape"
   id="svg2"
   version="1.1"
   inkscape:version="0.91 r13725"
   xml:space="preserve"
   width="716.375"
   height="506.5"
   viewBox="0 0 716.375 506.5"
   sodipodi:docname="Aim Logo - Vektor 2012 white.svg"><metadata
     id="metadata8"><rdf:RDF><cc:Work
         rdf:about=""><dc:format>image/svg+xml</dc:format><dc:type
           rdf:resource="http://purl.org/dc/dcmitype/StillImage" /><dc:title /></cc:Work></rdf:RDF></metadata><defs
     id="defs6" /><sodipodi:namedview
     pagecolor="#ffffff"
     bordercolor="#666666"
     borderopacity="1"
     objecttolerance="10"
     gridtolerance="10"
     guidetolerance="10"
     inkscape:pageopacity="0"
     inkscape:pageshadow="2"
     inkscape:window-width="1920"
     inkscape:window-height="1163"
     id="namedview4"
     showgrid="false"
     inkscape:zoom="0.32947127"
     inkscape:cx="-768.45911"
     inkscape:cy="243.07743"
     inkscape:window-x="1440"
     inkscape:window-y="800"
     inkscape:window-maximized="1"
     inkscape:current-layer="g12" /><g
     id="g10"
     inkscape:groupmode="layer"
     inkscape:label="ink_ext_XXXXXX"
     transform="matrix(1.25,0,0,-1.25,0,506.5)"><g
       id="g12"
       transform="scale(0.1,0.1)"><path
         d="m 1826.05,2140.84 c -180.49,7.58 -418.51,-216.19 -412.18,-385.74 137.49,0 274.95,0 412.18,0 0,129.75 0,257.77 0,385.74 z M 866.355,1754.28 c 10.954,260.5 106.719,483.21 290.945,667.57 184.78,184.91 408.1,281.18 668.85,291.88 0,73.16 0,144.43 0,215.59 -237.79,21 -630.5,-152.65 -835.291,-370.84 -211.976,-225.85 -324,-494.6 -342.699,-804.2 74.438,0 145.75,0 218.195,0 z m 384.535,-0.21 c 67.6,315.85 253.96,498.69 574.9,539.61 0,114.66 0,230.66 0,346.72 -516.72,-27.54 -870.806,-446.12 -884.935,-886.33 104.275,0 208.525,0 310.035,0 z M 1826.48,3201.4 C 982.051,3164.11 401.078,2492.84 380.383,1754.3 c 65.41,0 130.801,0 196.836,0 12.285,340.36 135.902,632.14 376.965,872.98 240.966,240.75 533.066,363.71 872.296,376.13 0,66.67 0,131.48 0,197.99 z M 1405.63,1675.12 c -22.19,-230.38 196.54,-466 439.73,-476.76 229.84,-10.17 491.55,154.69 487.05,481.54 -3.9,283.67 -234.94,460.17 -425.81,461.25 0,-128.69 0,-257.37 0,-387.8 71.78,0 142.47,0.07 213.17,-0.03 27.19,-0.04 40.74,-13.01 40.79,-38.5 0.05,-25.73 -13.21,-38.61 -40.42,-38.65 -64.9,-0.12 -129.81,0.04 -194.72,-0.18 -6.36,-0.02 -13.45,2.62 -19.93,-3.68 0,-72.38 0.1,-145.47 -0.05,-218.55 -0.04,-25.52 -13.4,-39.33 -37.64,-39.76 -26.21,-0.47 -40.38,12.78 -40.52,39.2 -0.28,50.73 0,101.46 0.03,152.19 0.02,22.91 0.01,45.82 0.01,69.73 -141.56,0 -280.81,0 -421.69,0 z M 34.4766,1744.08 c 8.7031,8.4 19.289,9.51 30.8906,9.44 60.4458,-0.35 120.8828,-0.16 181.3278,-0.15 7.293,0 14.59,0 22.414,0 11.536,427.15 165.129,791.57 466.825,1092.84 301.226,300.81 665.586,453.33 1091.356,465.22 0,77.86 0.32,154.57 -0.24,231.25 -0.14,18.19 7.5,31.86 23.29,36.68 17.03,5.18 35.36,5.06 48.62,-12.3 6.6,-8.65 6.51,-17.79 6.51,-27.47 0,-68.65 0.02,-137.3 0.04,-205.95 0,-7.25 0,-14.5 0,-23.13 295.43,-5.18 566.86,-84.66 816,-241.65 -25.12,-31.88 -49.02,-62.22 -73.75,-93.61 -112.41,68.7 -230.6,122.41 -355.57,160.73 -125.24,38.39 -253.34,60.66 -385.51,66.37 0,-65.97 0,-131.47 0,-199.49 108.74,-3.43 216.68,-18.48 322.28,-48.92 104.96,-30.26 204.27,-73.13 299.74,-130.11 -16.25,-20.72 -31.7,-40.41 -48.11,-61.34 -177.83,102.18 -368.36,159.12 -574.02,169.14 0,-73.21 0,-144.59 0,-218.48 155.44,-4.56 302.11,-43.32 441.38,-119.08 -16.74,-21.42 -32.44,-41.48 -48.4,-61.89 -124.01,64.13 -253.78,101.52 -392.96,109.57 0,-117.95 0,-234.83 0,-353.45 174.96,-14 309.57,-98.33 414.44,-241.21 0,72.19 0,140.81 0,211 50.77,0 99.39,0 148.94,0 0,-388.82 0,-777.26 0,-1167 -48.38,0 -96.54,0 -146.44,0 0,64.04 0,128.59 0,198.04 -186.23,-211.92 -413.67,-288.91 -675.43,-191.81 -259.67,96.33 -384.97,301.55 -398.49,577.61 -102.68,0 -205.99,0 -309.297,0 1.816,-148.18 63.587,-379.77 232.617,-575.53 -14.93,-19.22 -30.17,-38.82 -46.53,-59.88 -81.6,88.07 -143.962,185.84 -188.525,295.18 -44.312,108.73 -67.07,221.95 -71.078,340.22 -72.969,0 -144.926,0 -218.543,0 18.289,-310.67 132.809,-578.74 343.684,-806.291 -14.961,-18.988 -29.688,-37.688 -46.297,-58.789 -234.977,241.78 -357.043,529.66 -368.258,865.44 -66.344,0 -131.043,0 -200.039,0 22.312,-395.46 170.765,-734.151 446.429,-1020.44 -22.82,-29.078 -46.023,-58.66 -69.554,-88.641 -153.074,145.59 -271.84,313.653 -355.586,506.031 -83.367,191.54 -126.121,392.05 -128.219,603.91 -17.871,0 -34.75,0 -51.637,0 -48.5,0 -97.004,0.14 -145.5036,-0.09 -13.2617,-0.07 -26.3554,-0.01 -38.7968,5.34 0,20.9 0,41.79 0,62.69"
         style="fill:#ffffff;fill-opacity:1;fill-rule:evenodd;stroke:none"
         id="path16"
         inkscape:connector-curvature="0" /><path
         d="m 5000.4,1090.59 c -51.94,0 -101.61,0 -153.49,0 0,8.7 0,16.65 0,24.6 0,205.93 0.26,411.86 -0.15,617.79 -0.14,70.86 -1.15,141.87 -15.74,211.6 -23.95,114.39 -114.15,191.16 -231,197.94 -183.17,10.65 -339.51,-111.12 -378.99,-295.52 -20.28,-94.64 -23.68,-190.75 -23.76,-287.08 -0.12,-148.47 -0.03,-296.95 -0.03,-445.43 0,-7.34 0,-14.68 0,-23.31 -50.39,0 -99.2,0 -148.25,0 -4.27,7.77 -2.04,16.11 -2.06,24.05 -0.5,222.34 -0.33,444.69 -1.55,667.02 -0.3,55.14 -4.84,110.26 -16.64,164.44 -24.01,110.33 -116.03,189.02 -229.09,195.83 -178.05,10.72 -333.05,-109.72 -375.81,-292.02 -20.77,-88.52 -24.05,-178.64 -24.16,-268.99 -0.18,-155.19 -0.05,-310.39 -0.05,-465.57 0,-8.05 0,-16.09 0,-25.12 -50.32,0 -98.62,0 -148.5,0 0,388.58 0,777.52 0,1167.65 48.77,0 97.58,0 148.32,0 0,-64.46 0,-128.24 0,-192.02 1.4,-0.65 2.8,-1.3 4.2,-1.94 5.45,7.2 10.98,14.36 16.35,21.62 76.99,104.26 175.54,175.4 305.48,197.52 103.26,17.56 200.05,0.12 289.83,-54.87 73.72,-45.14 115.8,-113.96 145.87,-192.06 2.87,-7.48 5.49,-15.07 8.43,-23.16 9.22,3.8 10.56,12.74 14.48,19.24 74.26,123.18 175.31,211.77 318.14,245.9 232.36,55.52 436.29,-77.42 479.58,-312.02 13.16,-71.38 18.44,-143.43 18.49,-215.91 0.13,-215.63 0.08,-431.25 0.1,-646.89 0,-3.67 0,-7.35 0,-13.29"
         style="fill:#ffffff;fill-opacity:1;fill-rule:evenodd;stroke:none"
         id="path18"
         inkscape:connector-curvature="0" /><path
         d="m 2938.16,1090.66 c -50.21,0 -99.18,0 -149.49,0 0,389 0,777.76 0,1167.76 49.42,0 98.91,0 149.49,0 0,-388.8 0,-776.97 0,-1167.76"
         style="fill:#ffffff;fill-opacity:1;fill-rule:evenodd;stroke:none"
         id="path20"
         inkscape:connector-curvature="0" /><path
         d="m 2738.71,2617.04 c 0.03,69.19 56.3,125.49 124.91,124.96 68.04,-0.54 123.18,-55.84 123.73,-124.11 0.55,-68.42 -56.38,-125.33 -125.11,-125.06 -67.6,0.25 -123.55,56.51 -123.53,124.21"
         style="fill:#ffffff;fill-opacity:1;fill-rule:evenodd;stroke:none"
         id="path22"
         inkscape:connector-curvature="0" /><path
         d="m 4421.18,836.559 c 0.37,-41.161 31.87,-72.539 72.17,-71.868 38.61,0.629 71.47,35.348 70.69,74.668 -0.8,40.082 -33.71,72.172 -73.32,71.512 -40.09,-0.691 -69.91,-32.539 -69.54,-74.312 z m 1.86,-62.477 c 0,-30.512 0,-59.852 0,-88.242 -7.66,-5.66 -14.41,-2.719 -22.23,-3.328 0,81.758 0,163.25 0,245.027 6.71,2.461 13.05,2.012 21.53,-0.219 0,-8.07 0,-16.429 0,-26.179 55.82,42.109 102.98,42.23 140.18,1.929 33.22,-35.968 33.61,-91.511 0.92,-128.25 -35.65,-40.031 -83.49,-40.718 -140.4,-0.738"
         style="fill:#ffffff;fill-opacity:1;fill-rule:evenodd;stroke:none"
         id="path24"
         inkscape:connector-curvature="0" /><path
         d="m 4950.15,858.012 c -4.4,30.91 -28.44,51.429 -61.48,52.84 -33.82,1.437 -58.9,-18.02 -67.11,-52.84 42.98,0 85.74,0 128.59,0 z m -132.93,-21.403 c 3.32,-37.66 20.1,-60.8 47.82,-68.738 33.66,-9.66 61.19,2.231 87.68,38.188 7.81,0.742 13.08,-4.489 18.82,-8.719 -23.33,-47.11 -73.55,-66.379 -122.42,-47.211 -41.41,16.242 -65.69,67.59 -53.52,113.211 12.98,48.73 58.62,77.949 107.5,68.84 46.33,-8.66 77.11,-47.93 73.42,-95.571 -52.46,0 -105.09,0 -159.3,0"
         style="fill:#ffffff;fill-opacity:1;fill-rule:evenodd;stroke:none"
         id="path26"
         inkscape:connector-curvature="0" /><path
         d="m 2095.04,858.762 c 43.1,0 86.12,0 129.56,0 -9.18,34.437 -33.2,52.668 -66.87,52.117 -32.16,-0.539 -54.37,-18.93 -62.69,-52.117 z m 154.55,-23.114 c -53.49,0 -105.6,0 -157.69,0 -0.26,-32.738 17.21,-58.687 44.79,-67.398 33.42,-10.57 62.76,1.75 89.74,37.93 7.76,0.23 13.23,-4.571 18.81,-9.168 -25.11,-47.383 -74.46,-66.063 -123.02,-46.774 -42.21,16.774 -65.93,69.293 -52.16,115.5 14.39,48.282 58.43,75.633 106.84,66.383 46.43,-8.883 77.36,-48.789 72.69,-96.473"
         style="fill:#ffffff;fill-opacity:1;fill-rule:evenodd;stroke:none"
         id="path28"
         inkscape:connector-curvature="0" /><path
         d="m 3101.07,835.672 c 0.98,40.219 -31.04,74.598 -69.82,74.957 -38.05,0.371 -69.95,-32.008 -70.66,-71.738 -0.74,-40.5 28.94,-72.071 68.59,-72.942 39.58,-0.867 70.91,29.512 71.89,69.723 z m 23.37,1.117 c -0.46,-53.059 -40.77,-93.027 -93.74,-92.93 -53.51,0.102 -94.74,41.621 -94.35,95.012 0.39,53.18 42.55,94.988 95.37,94.578 52.91,-0.41 93.18,-42.398 92.72,-96.66"
         style="fill:#ffffff;fill-opacity:1;fill-rule:evenodd;stroke:none"
         id="path30"
         inkscape:connector-curvature="0" /><path
         d="m 1452.91,837.191 c 0.15,-40.8 30.17,-71.332 70.01,-71.23 39.78,0.098 69.9,30.828 70,71.43 0.11,40.578 -32.42,73.968 -71.36,73.218 -38.25,-0.718 -68.81,-33.398 -68.65,-73.418 z m 163.58,1.981 c 0.48,-54.32 -39.71,-95.242 -93.59,-95.301 -52.53,-0.062 -93.43,40 -94.55,92.629 -1.12,52.738 40.75,96.359 93.04,96.941 53.38,0.598 94.63,-40.3 95.1,-94.269"
         style="fill:#ffffff;fill-opacity:1;fill-rule:evenodd;stroke:none"
         id="path32"
         inkscape:connector-curvature="0" /><path
         d="m 1891.05,749.93 c -4.92,-0.641 -8.48,-1.469 -12.04,-1.469 -3.56,0 -7.12,0.809 -11.16,1.328 0,59.742 0,118.383 0,176.731 7.09,3.992 13.65,2.468 20.18,1.671 6.82,-7.293 -0.38,-17.453 5.76,-25.921 13.27,12.019 26.27,23.699 44.13,28.46 42.22,11.239 79.09,-12.332 84.73,-55.468 5.34,-40.864 1.48,-81.961 2.81,-122.641 -6.63,-7.031 -14.1,-3.34 -23.97,-4.012 0,27.621 0.03,54.11 -0.02,80.621 -0.01,8.2 -0.06,16.399 -0.39,24.61 -1.57,39.5 -14.81,56.75 -44.28,57.898 -32.15,1.262 -61.1,-22.898 -63.76,-56.277 -2.37,-29.68 -1.46,-59.621 -1.97,-89.449 -0.09,-5.051 -0.02,-10.082 -0.02,-16.082"
         style="fill:#ffffff;fill-opacity:1;fill-rule:evenodd;stroke:none"
         id="path34"
         inkscape:connector-curvature="0" /><path
         d="m 2883.78,795.531 c 5.17,-3.5 10.58,-7.16 16.01,-10.84 -26.76,-36.632 -73.37,-50.531 -118.12,-35.742 -40.72,13.461 -66.26,49.449 -64.95,91.52 1.3,41.422 29.4,77.152 69.74,88.652 44.8,12.77 89.55,-1.801 113.04,-37.531 -5.35,-3.481 -10.69,-6.942 -15.79,-10.25 -43.88,37.969 -92.34,40.449 -123.9,6.961 -26.08,-27.692 -26.07,-71.082 0.03,-99.449 31.2,-33.922 77.6,-31.641 123.94,6.679"
         style="fill:#ffffff;fill-opacity:1;fill-rule:evenodd;stroke:none"
         id="path36"
         inkscape:connector-curvature="0" /><path
         d="m 2453.71,795.961 c 5.74,-3.922 10.62,-7.262 16.66,-11.379 -11.49,-18.121 -27.59,-28.711 -46.95,-35.172 -52.97,-17.68 -108.26,4.129 -128.83,50.84 -19.23,43.672 -1.5,96.039 40.57,119.832 45.57,25.75 104.43,14.129 134.13,-26.793 -2.51,-6.949 -10.16,-7.629 -16.02,-12.707 -24.8,28.816 -55.89,37.828 -92.38,27.156 -18.06,-5.269 -31.39,-16.968 -40.86,-32.797 -17.82,-29.781 -9.96,-70.609 17.41,-92.98 33.01,-26.981 75.26,-22.32 116.27,14"
         style="fill:#ffffff;fill-opacity:1;fill-rule:evenodd;stroke:none"
         id="path38"
         inkscape:connector-curvature="0" /><path
         d="m 1391.37,891.078 c -5.36,-3.277 -10.73,-6.547 -15.86,-9.687 -43.7,38.089 -92.06,40.488 -123.69,6.769 -26.27,-28.019 -25.47,-73.43 1.78,-101.07 31.8,-32.27 79.6,-29.418 120,7.59 7.63,-0.348 12.64,-5.61 17.72,-10.782 -27.11,-36.609 -75.17,-50.207 -120.1,-34.179 -39.03,13.922 -64.76,51.301 -62.7,91.051 2.23,42.972 30.66,77.859 72.41,88.859 44.67,11.75 88.71,-3.238 110.44,-38.551"
         style="fill:#ffffff;fill-opacity:1;fill-rule:evenodd;stroke:none"
         id="path40"
         inkscape:connector-curvature="0" /><path
         d="m 4216.29,750.691 c -7.06,-3.57 -13.48,-2.761 -22.33,-0.429 0,32.879 0.37,66.179 -0.08,99.457 -0.56,41.133 -13.94,59.992 -42.84,61.922 -34.19,2.289 -61.18,-21.192 -65.85,-58.809 -2.11,-16.941 -1.97,-34.211 -2.34,-51.344 -0.36,-17 -0.08,-34.019 -0.08,-50.117 -7.91,-5 -14.41,-2.012 -21.97,-2.992 0,60.07 0,118.66 0,178.109 5.97,4.793 13.04,2.582 21.29,1.16 0.37,-8.046 0.74,-15.929 1.12,-24.187 9.54,-0.992 11.9,7.961 17.33,12.059 23.15,17.421 48.38,23.82 75.63,12.98 27.37,-10.879 39.11,-33.969 39.87,-62 1.02,-38.629 0.25,-77.301 0.25,-115.809"
         style="fill:#ffffff;fill-opacity:1;fill-rule:evenodd;stroke:none"
         id="path42"
         inkscape:connector-curvature="0" /><path
         d="m 3168.95,928.02 c 8.11,1.152 14.59,2.25 22.12,-1.2 0,-7.531 0,-15.41 0,-23.808 9.88,0.41 12.62,8.609 18.14,12.75 23.13,17.359 48.3,23.468 75.52,12.648 26.44,-10.5 38.49,-32.898 39.52,-59.781 1.48,-39.277 0.38,-78.66 0.38,-118.047 -6.56,-3.551 -12.99,-2.512 -22.08,-0.66 0,28.41 0.02,57.148 -0.01,85.887 -0.01,6.703 0.03,13.41 -0.27,20.101 -1.58,34.481 -14.7,52.61 -40.03,55.52 -30.5,3.511 -59.53,-16.129 -66.83,-46.77 -7.86,-32.988 -2.88,-66.762 -4.09,-100.16 -0.16,-4.441 -0.02,-8.891 -0.02,-13.238 -7.55,-4.403 -14.51,-3.672 -22.35,-0.891 0,58.699 0,117.277 0,177.649"
         style="fill:#ffffff;fill-opacity:1;fill-rule:evenodd;stroke:none"
         id="path44"
         inkscape:connector-curvature="0" /><path
         d="m 1816.2,749.441 c -7.96,0 -14.35,0 -22.34,0 0,35.25 0.45,69.43 -0.12,103.598 -0.64,37.75 -14.2,56.18 -41.62,58.52 -32.53,2.781 -60.37,-19.309 -66.35,-53.168 -6.27,-35.52 -1.06,-71.512 -3.65,-107.301 -7,-4.969 -14.05,-1.961 -21.76,-2.039 0,60.179 0,118.871 0,178.769 6.91,0 13.21,0 20.28,0 5.02,-7.211 0.15,-16.609 3.54,-26.761 7.77,6.601 13.87,12.742 20.88,17.57 23.07,15.93 48.11,20.43 74.09,8.551 24.98,-11.442 35.98,-33.391 36.75,-59.539 1.14,-38.743 0.3,-77.532 0.3,-118.2"
         style="fill:#ffffff;fill-opacity:1;fill-rule:evenodd;stroke:none"
         id="path46"
         inkscape:connector-curvature="0" /><path
         d="m 3504.24,928.039 c 8.02,0 14.31,0 23.64,0 0,-34.937 -1.08,-69.769 0.29,-104.5 1.48,-37.09 19.85,-55.75 52.46,-56.867 33.94,-1.16 55.66,17.269 57.03,51.558 1.42,35.711 0.31,71.508 0.31,106.762 7.21,6.68 14.46,3.629 24.02,3.067 -0.76,-41.688 3.59,-83.329 -2.72,-124.457 -6.07,-39.5 -34.33,-59.954 -76.56,-59.731 -41.58,0.211 -67.63,19.82 -74.92,58.801 -7.7,41.207 -2.09,82.898 -3.55,125.367"
         style="fill:#ffffff;fill-opacity:1;fill-rule:evenodd;stroke:none"
         id="path48"
         inkscape:connector-curvature="0" /><path
         d="m 4262.34,785.48 c 12.55,-8.082 20.68,-17.32 33.39,-18.761 17.45,-1.981 31.21,3.011 38.08,19.992 6.55,16.211 -2.07,27.141 -15,35.328 -10.03,6.359 -20.78,11.602 -30.88,17.883 -28.59,17.777 -37.6,45.109 -23.34,69.789 14.38,24.891 45.96,31.07 74.47,14.34 6.36,-3.731 13.01,-7.371 17.26,-15.039 -3.71,-4.203 -7.55,-8.563 -11.53,-13.063 -2.51,0.86 -4.85,1.09 -6.4,2.313 -8.91,6.957 -18.08,13.019 -29.94,13.476 -12.5,0.473 -21.75,-4.629 -27.07,-15.867 -5.28,-11.172 -0.96,-20.902 7.52,-27.91 8.5,-7.051 18.2,-12.859 27.93,-18.199 22.38,-12.282 42.67,-26.364 41.33,-55.481 -1,-21.89 -12.24,-38.98 -33.02,-46.32 -27.81,-9.832 -52.58,-2.801 -72.88,18.469 -0.83,8.879 7.84,10.742 10.08,19.05"
         style="fill:#ffffff;fill-opacity:1;fill-rule:evenodd;stroke:none"
         id="path50"
         inkscape:connector-curvature="0" /><path
         d="m 3465.4,909.539 c -4.45,-4.867 -8.4,-9.199 -12.5,-13.68 -9.59,5.102 -18.15,11.313 -27.72,14.36 -13.97,4.461 -27.19,1.261 -34.63,-12.629 -7.34,-13.68 -0.91,-24.828 10.18,-32.871 10.19,-7.367 21.56,-13.09 32.35,-19.66 32.46,-19.797 42.42,-49.829 25.45,-76.508 -16.65,-26.199 -54.01,-32.75 -83.21,-14.321 -5.52,3.469 -10.29,8.129 -14.63,11.622 -0.13,9.636 7.41,12.168 11.01,18.867 2.9,-1.91 5.39,-3.129 7.36,-4.938 11.65,-10.679 24.85,-16.25 40.83,-12.453 11.8,2.801 19.79,9.973 22.98,21.813 3.28,12.179 -0.71,22.281 -10.83,29.218 -9.78,6.692 -20.3,12.313 -30.58,18.282 -33.89,19.718 -44.57,49.14 -27.28,75.371 17.3,26.269 52.25,28.648 82.71,5.547 2.89,-2.2 5.32,-4.977 8.51,-8.02"
         style="fill:#ffffff;fill-opacity:1;fill-rule:evenodd;stroke:none"
         id="path52"
         inkscape:connector-curvature="0" /><path
         d="m 3803.37,905.711 c -32.13,5.66 -32.13,5.66 -30.26,22.48 9.22,0.629 18.64,1.258 29.37,1.969 0,21.66 0,42.332 0,62.922 8.06,4.848 15.04,2.27 23.28,2.188 0,-21.872 0,-42.59 0,-63.161 11.53,-6.269 23.07,-0.679 34.62,-4.308 4.51,-5.039 2.69,-11.192 0.39,-18.289 -10.89,-0.551 -21.81,-1.09 -34.15,-1.731 0,-52.84 0,-104.812 0,-156.402 -8.38,-4.207 -15.35,-4.059 -23.25,-0.629 0,51.281 0,102.602 0,154.961"
         style="fill:#ffffff;fill-opacity:1;fill-rule:evenodd;stroke:none"
         id="path54"
         inkscape:connector-curvature="0" /><path
         d="m 2507.26,909.91 c -3.95,5.32 -2.79,11.039 -0.94,18.488 9.03,0.411 18.42,0.852 29.91,1.364 0,21.726 0,43.019 0,63.707 8.35,3.801 14.69,2.781 23.15,1 0,-21.008 0,-42.27 0,-65.149 12.91,0 23.78,0 33.93,0 4.2,-7.129 3.08,-12.781 1.02,-20.031 -10.63,0 -21.62,0 -33.89,0 0,-53.578 0,-105.617 0,-157.078 -7.82,-5.801 -14.85,-4.211 -23.55,-2.039 0,51.91 0,103.828 0,154.957 -10.26,6.531 -20.5,1.172 -29.63,4.781"
         style="fill:#ffffff;fill-opacity:1;fill-rule:evenodd;stroke:none"
         id="path56"
         inkscape:connector-curvature="0" /><path
         d="m 4691.9,928.648 c 7.27,0 13.16,0 18.67,0 7.05,-5.476 0.37,-14.257 5.78,-20.957 18.13,17.848 36.14,35.047 64.21,19.668 -4.4,-11.199 -8.04,-18.8 -23.5,-17.308 -19.26,1.84 -35.03,-17.961 -39.47,-44.09 -5.15,-30.262 -3.25,-60.84 -3.56,-91.313 -0.08,-8.039 -0.01,-16.097 -0.01,-23.558 -7.82,-4.02 -14.26,-3 -22.12,-1.5 0,59.039 0,118.09 0,179.058"
         style="fill:#ffffff;fill-opacity:1;fill-rule:evenodd;stroke:none"
         id="path58"
         inkscape:connector-curvature="0" /><path
         d="m 3711.03,749.691 c 0,82.758 0,164.329 0,245.77 6.66,4.09 13.15,2.82 21.12,1.519 0,-82.031 0,-164.089 0,-246.519 -5.89,-3.691 -12.37,-2.152 -21.12,-0.77"
         style="fill:#ffffff;fill-opacity:1;fill-rule:evenodd;stroke:none"
         id="path60"
         inkscape:connector-curvature="0" /><path
         d="m 3989.41,928.602 c 7.19,0 13.01,0 20.34,0 0,-59.364 0,-118.481 0,-179.34 -6.16,-0.364 -12.51,-0.723 -20.34,-1.16 0,60.046 0,119.179 0,180.5"
         style="fill:#ffffff;fill-opacity:1;fill-rule:evenodd;stroke:none"
         id="path62"
         inkscape:connector-curvature="0" /><path
         d="m 4649.61,748.73 c -7.42,0 -13.34,0 -20.56,0 0,59.579 0,118.809 0,178.321 6.29,3.719 12.8,1.699 20.56,1.281 0,-59.32 0,-118.512 0,-179.602"
         style="fill:#ffffff;fill-opacity:1;fill-rule:evenodd;stroke:none"
         id="path64"
         inkscape:connector-curvature="0" /><path
         d="m 4639.19,964.5 c -11.85,0.949 -19.29,7.719 -18.93,19.789 0.34,10.859 7.4,17.891 18.81,17.861 12.42,-0.04 19.78,-7.459 19.36,-19.509 -0.38,-10.731 -7.42,-17.321 -19.24,-18.141"
         style="fill:#ffffff;fill-opacity:1;fill-rule:evenodd;stroke:none"
         id="path66"
         inkscape:connector-curvature="0" /><path
         d="m 4019.26,983.379 c -1.68,-11.629 -7.8,-19 -20.34,-18.617 -11.53,0.359 -18.08,8 -18.09,18.539 0,11.847 7.34,19.319 19.96,18.789 11.35,-0.47 17.03,-7.481 18.47,-18.711"
         style="fill:#ffffff;fill-opacity:1;fill-rule:evenodd;stroke:none"
         id="path68"
         inkscape:connector-curvature="0" /></g></g></svg>